<?xml version="1.0" encoding="UTF-8" standalone="no"?>
<!-- Created with Inkscape (http://www.inkscape.org/) -->

<svg
   xmlns:dc="http://purl.org/dc/elements/1.1/"
   xmlns:cc="http://creativecommons.org/ns#"
   xmlns:rdf="http://www.w3.org/1999/02/22-rdf-syntax-ns#"
   xmlns:svg="http://www.w3.org/2000/svg"
   xmlns="http://www.w3.org/2000/svg"
   xmlns:sodipodi="http://sodipodi.sourceforge.net/DTD/sodipodi-0.dtd"
   xmlns:inkscape="http://www.inkscape.org/namespaces/inkscape"
   version="1.1"
   id="svg3699"
   width="1000"
   height="265"
   viewBox="0 0 1000 265"
   sodipodi:docname="FatMoon_SVG_white.svg"
   inkscape:version="0.92.2 (5c3e80d, 2017-08-06)">
  <metadata
     id="metadata3705">
    <rdf:RDF>
      <cc:Work
         rdf:about="">
        <dc:format>image/svg+xml</dc:format>
        <dc:type
           rdf:resource="http://purl.org/dc/dcmitype/StillImage" />
        <dc:title></dc:title>
      </cc:Work>
    </rdf:RDF>
  </metadata>
  <defs
     id="defs3703" />
  <sodipodi:namedview
     pagecolor="#ffffff"
     bordercolor="#666666"
     borderopacity="1"
     objecttolerance="10"
     gridtolerance="10"
     guidetolerance="10"
     inkscape:pageopacity="0"
     inkscape:pageshadow="2"
     inkscape:window-width="1920"
     inkscape:window-height="1027"
     id="namedview3701"
     showgrid="false"
     inkscape:zoom="0.6"
     inkscape:cx="589.78948"
     inkscape:cy="94.333333"
     inkscape:window-x="-8"
     inkscape:window-y="-8"
     inkscape:window-maximized="1"
     inkscape:current-layer="svg3699" />
  <path
     id="path31"
     style="font-style:normal;font-variant:normal;font-weight:bold;font-stretch:normal;font-size:medium;line-height:1.25;font-family:Montserrat;-inkscape-font-specification:'Montserrat, Bold';font-variant-ligatures:normal;font-variant-caps:normal;font-variant-numeric:normal;font-feature-settings:normal;text-align:start;letter-spacing:0px;word-spacing:0px;writing-mode:lr-tb;text-anchor:start;fill:#ffffff;fill-opacity:1;stroke:none;stroke-width:4.17405367"
     d="m 904.81982,75.738057 h 26.0461 V 192.4446 h -26.0461 l -55.59839,-73.12942 v 73.12942 h -26.0461 V 75.738057 h 24.37648 l 57.26801,75.132963 z M 774.56063,133.50696 q 0,-15.69444 -10.01773,-26.71394 -10.01773,-11.019505 -24.7104,-11.019505 -14.52571,0 -24.54343,11.019505 -10.01773,11.0195 -10.01773,26.71394 0,15.52748 10.01773,26.54698 10.01772,10.85254 24.54343,10.85254 14.69267,0 24.7104,-10.85254 10.01773,-11.0195 10.01773,-26.54698 z m 8.84899,42.90927 q -17.69799,17.1971 -43.57712,17.1971 -25.87913,0 -43.57712,-17.1971 -17.69799,-17.36406 -17.69799,-43.07623 0,-25.71217 17.69799,-42.909274 17.69799,-17.364063 43.57712,-17.364063 25.87913,0 43.57712,17.364063 17.69799,17.197104 17.69799,42.909274 0,25.71217 -17.69799,43.07623 z M 636.62123,133.50696 q 0,-15.69444 -10.01772,-26.71394 -10.01773,-11.019505 -24.7104,-11.019505 -14.52571,0 -24.54344,11.019505 -10.01772,11.0195 -10.01772,26.71394 0,15.52748 10.01772,26.54698 10.01773,10.85254 24.54344,10.85254 14.69267,0 24.7104,-10.85254 10.01772,-11.0195 10.01772,-26.54698 z m 8.849,42.90927 q -17.69799,17.1971 -43.57712,17.1971 -25.87913,0 -43.57712,-17.1971 Q 540.618,159.05217 540.618,133.34 q 0,-25.71217 17.69799,-42.909274 17.69799,-17.364063 43.57712,-17.364063 25.87913,0 43.57712,17.364063 17.69799,17.197104 17.69799,42.909274 0,25.71217 -17.69799,43.07623 z M 492.67899,118.98125 461.12314,182.76079 H 445.59566 L 414.20678,118.98125 V 192.4446 H 388.16069 V 75.738057 h 35.22901 l 30.05318,64.113463 30.22015,-64.113463 h 35.06205 V 192.4446 H 492.67899 Z M 336.16504,98.277947 V 192.4446 h -26.0461 V 98.277947 h -33.0585 v -22.53989 h 92.1631 v 22.53989 z M 254.12661,192.4446 243.27407,167.23331 H 194.35416 L 183.50162,192.4446 H 155.78591 L 206.20848,75.738057 h 25.21128 L 281.84233,192.4446 Z M 218.8976,110.46618 204.20493,144.3595 h 29.21838 z M 155.2485,75.738057 v 22.873814 h -54.09574 v 25.211279 h 51.42434 v 22.87382 H 101.15276 V 192.4446 H 75.106669 V 75.738057 Z" />
</svg>
